<?xml version="1.0" encoding="utf-8"?>
<!-- Generator: Adobe Illustrator 24.0.0, SVG Export Plug-In . SVG Version: 6.00 Build 0)  -->
<svg version="1.1" id="Capa_1" xmlns="http://www.w3.org/2000/svg" xmlns:xlink="http://www.w3.org/1999/xlink" x="0px" y="0px"
	 viewBox="0 0 1559 496" style="enable-background:new 0 0 1559 496;" xml:space="preserve">
<style type="text/css">
	.st0{fill:#98CA3F;}
	.st1{filter:url(#Adobe_OpacityMaskFilter);}
	.st2{fill-rule:evenodd;clip-rule:evenodd;fill:#FFFFFF;}
	.st3{mask:url(#mask-2_1_);fill:#80AA2B;}
	.st4{fill:#55AA00;}
	.st5{fill:#FFFFFF;}
	.st6{fill:#808000;}
</style>
<title>platzi</title>
<g id="platzi">
	<g id="Group">
		<g id="Combined-Shape">
			<path id="path-1_1_" class="st0" d="M234.5,1c21.7-3.4,44.5,2.2,62,15.5c11,8.3,20.3,19.4,30,29.1l0,0l56,56
				c16.6,16.6,37.6,32.7,48.2,54c9.8,19.5,11.2,43.5,3.5,64c-7.1,19-21.6,31.9-35.6,45.8l-1.2,1.2l-81,81c-3,3-7.5,6.2-9.4,10
				c-2.6,5.3,8.1,12.7,11.4,16l0,0l29,29c3.1,3.1,9.5,7.5,10.7,12c0.8,3.2-2.7,6-4.7,8c-5.3,5.4-10.7,10.7-16,16
				c-22.5,22.5-43.6,50.3-77,55.6c-21.7,3.4-44.5-2.2-62-15.5c-11-8.3-20.3-19.4-30-29.1l0,0l-126-126c-18.7-18.7-37.3-35.7-41.6-63
				c-3.4-21.7,2.2-44.5,15.5-62c9.2-12,21.4-22.3,32.1-33l0,0l113-113C183,31,202.8,5.9,234.5,1z M247.5,82.7c-3.8,0-7.6,5.4-10,7.8
				l-146,146c-2.6,2.6-8.8,6.9-8.8,11s6.2,8.4,8.8,11l146,146c2.4,2.4,6.2,7.8,10,7.8c5.1,0,11.7-9.5,15-12.8l40-40
				c-10.1-14.4-25.5-26.5-38-39c-4.1-4.1-13.3-10.3-14.8-16c-0.9-3.6,3.6-6.8,5.8-9l103-103c-7.8-11.1-19.4-20.4-29-30l-73-73
				C254.3,87.3,251,82.7,247.5,82.7z"/>
		</g>
		<defs>
			<filter id="Adobe_OpacityMaskFilter" filterUnits="userSpaceOnUse" x="80.8" y="247.1" width="0.4" height="0.9">
				<feColorMatrix  type="matrix" values="1 0 0 0 0  0 1 0 0 0  0 0 1 0 0  0 0 0 1 0"/>
			</filter>
		</defs>
		<mask maskUnits="userSpaceOnUse" x="80.8" y="247.1" width="0.4" height="0.9" id="mask-2_1_">
			<g class="st1">
				<path id="path-1_2_" class="st2" d="M234.5,1c21.7-3.4,44.5,2.2,62,15.5c11,8.3,20.3,19.4,30,29.1l0,0l56,56
					c16.6,16.6,37.6,32.7,48.2,54c9.8,19.5,11.2,43.5,3.5,64c-7.1,19-21.6,31.9-35.6,45.8l-1.2,1.2l-81,81c-3,3-7.5,6.2-9.4,10
					c-2.6,5.3,8.1,12.7,11.4,16l0,0l29,29c3.1,3.1,9.5,7.5,10.7,12c0.8,3.2-2.7,6-4.7,8c-5.3,5.4-10.7,10.7-16,16
					c-22.5,22.5-43.6,50.3-77,55.6c-21.7,3.4-44.5-2.2-62-15.5c-11-8.3-20.3-19.4-30-29.1l0,0l-126-126
					c-18.7-18.7-37.3-35.7-41.6-63c-3.4-21.7,2.2-44.5,15.5-62c9.2-12,21.4-22.3,32.1-33l0,0l113-113C183,31,202.8,5.9,234.5,1z
					 M247.5,82.7c-3.8,0-7.6,5.4-10,7.8l-146,146c-2.6,2.6-8.8,6.9-8.8,11s6.2,8.4,8.8,11l146,146c2.4,2.4,6.2,7.8,10,7.8
					c5.1,0,11.7-9.5,15-12.8l40-40c-10.1-14.4-25.5-26.5-38-39c-4.1-4.1-13.3-10.3-14.8-16c-0.9-3.6,3.6-6.8,5.8-9l103-103
					c-7.8-11.1-19.4-20.4-29-30l-73-73C254.3,87.3,251,82.7,247.5,82.7z"/>
			</g>
		</mask>
		<path id="Path" class="st3" d="M80.9,247.2c-0.1,0.1-0.1,1.1,0.3,0.7C81.3,247.8,81.3,246.8,80.9,247.2z"/>
	</g>
	<path id="Path_1_" class="st4" d="M248,81c5.5,7.8,13.3,14.3,20,21l35,35l35,35c6.7,6.7,13.2,14.5,21,20c-5.5-7.8-13.3-14.3-20-21
		l-35-35l-35-35C262.3,94.3,255.8,86.5,248,81z"/>
	<path id="Combined-Shape_1_" class="st5" d="M841.1,102.1v199.1c0,17.3-4,49.3,16,57.5c3.4,1.4,7.4,2,11,2.3
		c5.5,0.4,11.6-0.8,17-1.8l0,0l1,37c-24.4,0.5-52.9,7.9-72.8-11.3c-21-20.1-18.2-57.3-18.2-83.7l0,0V102.1H841.1z M640.9,102.1
		c30.4,0,59-0.3,85.2,18c56.1,39.5,53.8,135.7-5,171.6c-23.2,14.2-49,15.4-75.3,15.5l-1.7,0h-52v87h-50V102.1L640.9,102.1z
		 M648,145.1h-57v118.1h57c15.5,0,30.3,0.5,44-7.8c37-22.5,36-86.2-4-105.1C675.2,144.1,661.8,145.1,648,145.1z M1525.2,101.5
		c9.7-1.7,21,0.9,27.5,8.6c13.6,16.2,3.8,41.8-16.5,45.5c-3.7,0.7-7.3,0.4-11-0.3c-5.9-1.2-11.6-3.7-15.7-8.3
		C1495.5,131.2,1505,105.2,1525.2,101.5z"/>
	<path id="Path_2_" class="st6" d="M422,142l1,1L422,142z"/>
	<path id="Path_3_" class="st5" d="M1166,144v49.1h-41v37.1h41v78.1c0,23.3,0.2,47.7,14.9,67.1c18.8,24.9,53.6,27.7,82.2,22.2
		c6-1.1,12.1-2.2,18-3.9c2.2-0.6,5.5-1.1,7-3c1.8-2.4,0.4-6.6,0-9.3c-1.1-8.3-2.8-16.7-3-25c-17.1,1.5-32.5,11.3-50,4.9
		c-15.4-5.5-21.4-19.9-23.2-35c-1.5-12.3-0.8-24.7-0.8-37.1v-59.1h70.1v-37.1h-70.1V144H1166z"/>
	<path id="Shape" class="st6" d="M435,166l1,1L435,166 M437,173l1,1L437,173 M438,178l1,1L438,178z"/>
	<path id="Combined-Shape_2_" class="st5" d="M1015.3,189c18.5,0,37.3,4.2,55,9.4c6.5,1.9,16.4,4.2,21.7,8.6c2.9,2.4,2.3,6.6,2.3,10
		l0,0v100.9c0,11-2.4,25.7,2.6,36c3.7,7.7,11,8,18.4,8l1,0v32c-18.4,2.3-45.5,6.3-55.7-14c-3.8-7.6-2-15.2-4.3-23
		c-3.7,12.7-15,23.1-26,29.8c-30.4,18.4-72.8,13.9-99.9-8.4c-14.8-12.2-24.3-31-28.9-49.3c-9.5-37.8-4.9-82,24.1-110.4
		C949.6,194.9,983,188.9,1015.3,189z M1477,193c0,8.3-3.9,13.1-8.2,20c-5.9,9.4-12.1,18.6-18.1,28c-24.7,38.3-50.1,76.1-75.7,113.9
		l0,0H1476v40h-167.9c0-18.3,16.2-34.9,25.6-49.9c17.6-28.1,35.7-55.8,54.7-82.9c7.2-10.3,13.9-21.1,21.7-31l0,0h-95v-38H1477z
		 M1554,194v200.8h-46V194H1554z M997.3,227.4c-16.2,2.3-31.2,9.1-41.2,22.5c-19.6,26.3-17.9,75.5,9.2,96.4
		c12.1,9.3,28.3,11.5,43,9.2c4.6-0.7,8.9-2.3,13-4.5c29.6-15.5,29-53.4,29-82.2l0-23.8c0-2.8,0.7-6.9-1-9.3c-2.5-3.4-9.1-4.3-13-5.3
		C1023.8,227.2,1010.1,225.6,997.3,227.4z"/>
	<path id="Path_4_" class="st6" d="M439,196l1,1L439,196z"/>
	<path id="Shape_1_" class="st4" d="M438,205l1,1L438,205 M437,210l1,1L437,210z"/>
	<path id="Path_5_" class="st6" d="M427,234l1,1L427,234z"/>
	<path id="Path_6_" class="st4" d="M425,237l1,1L425,237z"/>
	<path id="Shape_2_" class="st4" d="M302,360l1,1L302,360 M305,360l1,1L305,360 M301,361l1,1L301,361 M306,361l1,1L306,361 M300,362
		l1,1L300,362 M307,362l1,1L307,362 M299,363l1,1L299,363 M308,363l1,1L308,363 M298,364l1,1L298,364 M309,364l1,1L309,364 M297,365
		l1,1L297,365 M310,365l1,1L310,365 M296,366l1,1L296,366 M311,366l1,1L311,366 M295,367l1,1L295,367 M312,367l1,1L312,367 M294,368
		l1,1L294,368 M313,368l1,1L313,368 M293,369l1,1L293,369 M314,369l1,1L314,369 M292,370l1,1L292,370 M315,370l1,1L315,370 M291,371
		l1,1L291,371 M316,371l1,1L316,371 M290,372l1,1L290,372 M317,372l1,1L317,372 M289,373l1,1L289,373 M318,373l1,1L318,373 M288,374
		l1,1L288,374 M319,374l1,1L319,374 M287,375l1,1L287,375 M320,375l1,1L320,375 M286,376l1,1L286,376 M321,376l1,1L321,376 M285,377
		l1,1L285,377 M322,377l1,1L322,377 M284,378l1,1L284,378 M323,378l1,1L323,378 M283,379l1,1L283,379 M324,379l1,1L324,379 M282,380
		l1,1L282,380 M325,380l1,1L325,380 M281,381l1,1L281,381 M326,381l1,1L326,381 M280,382l1,1L280,382 M327,382l1,1L327,382 M279,383
		l1,1L279,383 M328,383l1,1L328,383 M278,384l1,1L278,384 M329,384l1,1L329,384 M277,385l1,1L277,385 M330,385l1,1L330,385 M276,386
		l1,1L276,386 M331,386l1,1L331,386 M275,387l1,1L275,387 M332,387l1,1L332,387 M274,388l1,1L274,388 M333,388l1,1L333,388 M273,389
		l1,1L273,389 M334,389l1,1L334,389 M272,390l1,1L272,390 M335,390l1,1L335,390 M271,391l1,1L271,391 M336,391l1,1L336,391 M270,392
		l1,1L270,392 M337,392l1,1L337,392 M269,393l1,1L269,393 M338,393l1,1L338,393 M268,394l1,1L268,394 M339,394l1,1L339,394 M267,395
		l1,1L267,395 M340,395l1,1L340,395 M266,396l1,1L266,396 M341,396l1,1L341,396 M265,397l1,1L265,397 M342,397l1,1L342,397 M264,398
		l1,1L264,398 M343,398l1,1L343,398 M263,399l1,1L263,399 M344,399l1,1L344,399 M262,400l1,1L262,400 M345,400l1,1L345,400 M261,401
		l1,1L261,401 M346,401l1,1L346,401 M260,402l1,1L260,402 M347,402l1,1L347,402 M259,403l1,1L259,403 M348,403l1,1L348,403 M258,404
		l1,1L258,404 M349,404l1,1L349,404 M257,405l1,1L257,405 M350,405l1,1L350,405 M256,406l1,1L256,406 M351,406l1,1L351,406 M255,407
		l1,1L255,407 M352,407l1,1L352,407 M254,408l1,1L254,408 M353,408l1,1L353,408 M253,409l1,1L253,409 M354,409l1,1L354,409 M252,410
		l1,1L252,410 M355,410l1,1L355,410 M251,411l1,1L251,411 M356,411l1,1L356,411 M250,412l1,1L250,412 M357,412l1,1L357,412 M249,413
		l1,1L249,413 M358,413l1,1L358,413 M248,414l1,1L248,414 M359,414l1,1L359,414z"/>
</g>
</svg>
